<svg width="628" height="360" viewBox="0 0 628 360" fill="none" xmlns="http://www.w3.org/2000/svg">
<path d="M255 305C255 318.807 243.807 330 230 330C216.193 330 205 318.807 205 305C205 291.193 216.193 280 230 280C243.807 280 255 291.193 255 305Z" stroke="white" stroke-opacity="0.06" stroke-width="20"/>
<path d="M305 305C305 346.421 271.421 380 230 380C188.579 380 155 346.421 155 305C155 263.579 188.579 230 230 230C271.421 230 305 263.579 305 305Z" stroke="white" stroke-opacity="0.06" stroke-width="20"/>
<path d="M368 304.5C368 380.439 306.439 442 230.5 442C154.561 442 93 380.439 93 304.5C93 228.561 154.561 167 230.5 167C306.439 167 368 228.561 368 304.5Z" stroke="white" stroke-opacity="0.06" stroke-width="20"/>
<path d="M430 305C430 415.457 340.457 505 230 505C119.543 505 30 415.457 30 305C30 194.543 119.543 105 230 105C340.457 105 430 194.543 430 305Z" stroke="white" stroke-opacity="0.06" stroke-width="20"/>
<path d="M493 304.5C493 449.475 375.475 567 230.5 567C85.5253 567 -32 449.475 -32 304.5C-32 159.525 85.5253 42 230.5 42C375.475 42 493 159.525 493 304.5Z" stroke="white" stroke-opacity="0.06" stroke-width="20"/>
<path d="M555 305C555 484.493 409.493 630 230 630C50.5075 630 -95 484.493 -95 305C-95 125.507 50.5075 -20 230 -20C409.493 -20 555 125.507 555 305Z" stroke="white" stroke-opacity="0.06" stroke-width="20"/>
<path d="M618 304.5C618 518.51 444.51 692 230.5 692C16.4897 692 -157 518.51 -157 304.5C-157 90.4897 16.4897 -83 230.5 -83C444.51 -83 618 90.4897 618 304.5Z" stroke="white" stroke-opacity="0.06" stroke-width="20"/>
</svg>
